<?xml version="1.0" standalone="no"?>
<!DOCTYPE svg PUBLIC "-//W3C//DTD SVG 20010904//EN"
 "http://www.w3.org/TR/2001/REC-SVG-20010904/DTD/svg10.dtd">
<svg version="1.0" xmlns="http://www.w3.org/2000/svg"
 width="750.000000pt" height="500.000000pt" viewBox="0 0 750.000000 500.000000"
 preserveAspectRatio="xMidYMid meet">

<g transform="translate(0.000000,500.000000) scale(0.100000,-0.100000)"
fill="#000000" stroke="none">
<path d="M3660 4299 c-487 -28 -923 -365 -1086 -841 -45 -134 -58 -223 -58
-398 0 -265 53 -480 184 -748 141 -290 323 -535 587 -793 166 -163 339 -298
429 -335 42 -18 69 -8 177 65 103 69 192 145 325 275 260 254 442 501 582 787
296 606 240 1195 -152 1606 -188 196 -418 320 -679 367 -108 19 -179 22 -309
15z m347 -336 c281 -93 489 -314 564 -598 31 -115 31 -299 0 -415 -68 -261
-270 -491 -510 -581 -119 -44 -172 -53 -311 -53 -216 0 -367 52 -541 189 -118
93 -237 280 -280 440 -30 113 -30 307 0 420 71 268 278 498 527 586 116 40
173 49 319 45 124 -2 150 -6 232 -33z"/>
<path d="M3475 3660 c-310 -130 -320 -135 -334 -166 -17 -37 -15 -641 2 -674
10 -20 70 -50 292 -147 157 -68 294 -122 312 -122 20 -1 135 44 300 115 147
64 274 118 281 121 38 16 42 53 42 373 0 247 -3 317 -14 338 -12 23 -61 47
-303 150 -158 67 -295 122 -303 122 -8 -1 -132 -50 -275 -110z m542 -86 c136
-58 251 -109 255 -113 4 -3 -40 -26 -98 -50 l-104 -44 -259 114 c-142 63 -257
116 -254 119 9 10 178 79 195 79 9 1 128 -47 265 -105z m-311 -138 c230 -102
256 -116 234 -124 -14 -6 -61 -26 -105 -45 l-81 -34 -269 113 -270 113 40 17
c22 9 69 29 105 45 36 15 70 28 76 28 6 1 127 -50 270 -113z m576 -561 c-3
-16 -53 -41 -230 -117 -125 -53 -235 -100 -245 -104 -16 -6 -17 9 -15 251 l3
256 93 39 92 39 0 -51 c0 -44 2 -49 18 -43 9 4 29 12 45 17 25 9 27 14 27 63
l0 52 103 45 102 44 5 -235 c3 -130 3 -245 2 -256z"/>
<path d="M2890 1270 c-419 -55 -605 -129 -605 -238 0 -54 34 -94 112 -135 168
-87 500 -154 938 -187 178 -14 701 -14 865 0 516 43 916 146 993 254 13 19 22
45 22 70 0 99 -184 177 -527 225 -79 11 -187 23 -240 27 -86 6 -98 5 -98 -9 0
-11 14 -18 48 -22 278 -37 530 -94 644 -147 115 -53 125 -83 41 -130 -184
-104 -817 -168 -1523 -155 -556 11 -959 65 -1130 150 -95 47 -93 75 11 128
109 55 404 125 604 144 89 8 105 13 105 31 0 19 -86 17 -260 -6z"/>
</g>
</svg>
